<svg width="16" height="17" viewBox="0 0 16 17" fill="none" xmlns="http://www.w3.org/2000/svg">
<g clip-path="url(#clip0_5045_2409)">
<path fill-rule="evenodd" clip-rule="evenodd" d="M0.725098 8.23577C0.725098 7.4567 1.03458 6.70953 1.58547 6.15864C2.13636 5.60776 2.88352 5.29827 3.6626 5.29827H7.87066C8.64974 5.29827 9.3969 5.60776 9.94779 6.15864C10.4987 6.70953 10.8082 7.4567 10.8082 8.23577V12.4438C10.8082 13.2229 10.4987 13.9701 9.94779 14.521C9.3969 15.0719 8.64974 15.3813 7.87066 15.3813H3.6626C2.88352 15.3813 2.13636 15.0719 1.58547 14.521C1.03458 13.9701 0.725098 13.2229 0.725098 12.4438V8.23577ZM3.6626 6.47327C3.19515 6.47327 2.74685 6.65896 2.41632 6.9895C2.08579 7.32003 1.9001 7.76833 1.9001 8.23577V12.4438C1.9001 12.9113 2.08579 13.3596 2.41632 13.6901C2.74685 14.0206 3.19515 14.2063 3.6626 14.2063H7.87145C8.33889 14.2063 8.78719 14.0206 9.11772 13.6901C9.44826 13.3596 9.63395 12.9113 9.63395 12.4438V8.23577C9.63395 7.76833 9.44826 7.32003 9.11772 6.9895C8.78719 6.65896 8.33889 6.47327 7.87145 6.47327H3.6626Z" fill="#174EA0"/>
<path fill-rule="evenodd" clip-rule="evenodd" d="M5.13379 3.82717C5.13379 3.0481 5.44327 2.30093 5.99416 1.75005C6.54505 1.19916 7.29222 0.889671 8.07129 0.889671H12.2794C13.0584 0.889671 13.8056 1.19916 14.3565 1.75005C14.9074 2.30093 15.2169 3.0481 15.2169 3.82717V8.03524C15.2169 8.81431 14.9074 9.56148 14.3565 10.1124C13.8056 10.6633 13.0584 10.9727 12.2794 10.9727H10.3649V9.79774H12.2794C12.7468 9.79774 13.1951 9.61205 13.5256 9.28151C13.8562 8.95098 14.0419 8.50268 14.0419 8.03524V3.82717C14.0419 3.35973 13.8562 2.91143 13.5256 2.5809C13.1951 2.25036 12.7468 2.06467 12.2794 2.06467H8.07129C7.60384 2.06467 7.15555 2.25036 6.82501 2.5809C6.49448 2.91143 6.30879 3.35973 6.30879 3.82717V5.92729H5.13379V3.82717Z" fill="#174EA0"/>
<path d="M8.58199 8.53109C8.58199 8.79701 8.47636 9.05204 8.28832 9.24008C8.10028 9.42811 7.84525 9.53375 7.57933 9.53375C7.3134 9.53375 7.05837 9.42811 6.87033 9.24008C6.6823 9.05204 6.57666 8.79701 6.57666 8.53109C6.57666 8.26516 6.6823 8.01013 6.87033 7.82209C7.05837 7.63406 7.3134 7.52842 7.57933 7.52842C7.84525 7.52842 8.10028 7.63406 8.28832 7.82209C8.47636 8.01013 8.58199 8.26516 8.58199 8.53109Z" fill="#174EA0"/>
<path fill-rule="evenodd" clip-rule="evenodd" d="M6.5531 14.6662C6.3181 12.1791 4.29553 10.1518 1.6792 9.81105L1.83117 8.64545C4.95275 9.05279 7.432 11.485 7.72183 14.5557L6.5531 14.6662ZM2.85577 0.27867C2.96592 0.16865 3.11524 0.106853 3.27093 0.106853C3.42662 0.106853 3.57594 0.16865 3.6861 0.27867L4.30807 0.899853C4.56494 1.15691 4.70923 1.50544 4.70923 1.86884C4.70923 2.23224 4.56494 2.58077 4.30807 2.83782L3.68688 3.459C3.57551 3.56278 3.42821 3.61928 3.27601 3.61659C3.1238 3.6139 2.97859 3.55225 2.87095 3.44461C2.76331 3.33697 2.70165 3.19175 2.69896 3.03955C2.69628 2.88734 2.75277 2.74004 2.85655 2.62867L3.47695 2.00749C3.49519 1.9893 3.50966 1.96768 3.51953 1.94389C3.5294 1.9201 3.53448 1.8946 3.53448 1.86884C3.53448 1.84308 3.5294 1.81757 3.51953 1.79378C3.50966 1.76999 3.49519 1.74838 3.47695 1.73019L2.85577 1.109C2.74575 0.998847 2.68395 0.849524 2.68395 0.693837C2.68395 0.538148 2.74575 0.388826 2.85577 0.27867ZM13.4778 15.209C13.3676 15.319 13.2183 15.3808 13.0626 15.3808C12.9069 15.3808 12.7576 15.319 12.6474 15.209L12.0262 14.5878C11.7694 14.3308 11.6251 13.9822 11.6251 13.6188C11.6251 13.2554 11.7694 12.9069 12.0262 12.6499L12.6474 12.0287C12.7588 11.9249 12.9061 11.8684 13.0583 11.8711C13.2105 11.8738 13.3557 11.9354 13.4634 12.0431C13.571 12.1507 13.6327 12.2959 13.6354 12.4481C13.638 12.6003 13.5815 12.7476 13.4778 12.859L12.8574 13.4802C12.8391 13.4984 12.8247 13.52 12.8148 13.5438C12.8049 13.5676 12.7998 13.5931 12.7998 13.6188C12.7998 13.6446 12.8049 13.6701 12.8148 13.6939C12.8247 13.7177 12.8391 13.7393 12.8574 13.7575L13.4785 14.3787C13.5886 14.4888 13.6504 14.6381 13.6504 14.7938C13.6504 14.9495 13.5878 15.0988 13.4778 15.209Z" fill="#174EA0"/>
<path fill-rule="evenodd" clip-rule="evenodd" d="M0.333496 3.43551C0.333496 2.86419 0.560452 2.31627 0.964437 1.91228C1.36842 1.5083 1.91634 1.28134 2.48766 1.28134H4.05433C4.21014 1.28134 4.35958 1.34324 4.46975 1.45342C4.57993 1.56359 4.64183 1.71303 4.64183 1.86884C4.64183 2.02466 4.57993 2.17409 4.46975 2.28427C4.35958 2.39444 4.21014 2.45634 4.05433 2.45634H2.48766C1.94716 2.45634 1.5085 2.89501 1.5085 3.43551V4.21884C1.5085 4.37466 1.4466 4.52409 1.33642 4.63427C1.22624 4.74444 1.07681 4.80634 0.920996 4.80634C0.765181 4.80634 0.615748 4.74444 0.505571 4.63427C0.395393 4.52409 0.333496 4.37466 0.333496 4.21884V3.43551ZM16.0002 12.0522C16.0002 12.3351 15.9444 12.6152 15.8362 12.8765C15.7279 13.1379 15.5693 13.3754 15.3692 13.5754C15.1692 13.7754 14.9317 13.9341 14.6704 14.0424C14.409 14.1506 14.1289 14.2063 13.846 14.2063H12.2793C12.1235 14.2063 11.9741 14.1444 11.8639 14.0343C11.7537 13.9241 11.6918 13.7747 11.6918 13.6188C11.6918 13.463 11.7537 13.3136 11.8639 13.2034C11.9741 13.0932 12.1235 13.0313 12.2793 13.0313H13.846C14.3865 13.0313 14.8252 12.5927 14.8252 12.0522V11.2688C14.8252 11.113 14.8871 10.9636 14.9972 10.8534C15.1074 10.7432 15.2568 10.6813 15.4127 10.6813C15.5685 10.6813 15.7179 10.7432 15.8281 10.8534C15.9383 10.9636 16.0002 11.113 16.0002 11.2688V12.0522Z" fill="#174EA0"/>
</g>
<defs>
<clipPath id="clip0_5045_2409">
<rect width="16" height="16" fill="white" transform="translate(0 0.0772095)"/>
</clipPath>
</defs>
</svg>
