<svg width="24" height="25" viewBox="0 0 24 25" fill="none" xmlns="http://www.w3.org/2000/svg">
<path d="M20.9612 14.4893L20.6332 14.3003C20.4825 14.2098 20.3616 14.0773 20.2854 13.919C20.2091 13.7606 20.1809 13.5834 20.2042 13.4093C20.2347 13.1313 20.25 12.8519 20.2502 12.5723C20.25 12.2937 20.2349 12.0153 20.2052 11.7383C20.1812 11.5637 20.209 11.386 20.2851 11.227C20.3611 11.0681 20.4822 10.935 20.6332 10.8443L20.9612 10.6553C21.508 10.3388 21.907 9.81839 22.0705 9.20813C22.234 8.59787 22.1486 7.94768 21.8332 7.40027L21.4002 6.64227C21.2435 6.37117 21.0348 6.13361 20.7863 5.94317C20.5377 5.75272 20.254 5.61311 19.9515 5.53232C19.6489 5.45153 19.3334 5.43114 19.023 5.47231C18.7125 5.51348 18.4133 5.6154 18.1422 5.77227L17.8102 5.96427C17.6579 6.04934 17.4841 6.08796 17.3101 6.07534C17.1361 6.06272 16.9696 5.99942 16.8312 5.89327C16.3554 5.55001 15.8445 5.25805 15.3072 5.02227C15.1452 4.95553 15.0062 4.84296 14.9073 4.69836C14.8083 4.55377 14.7538 4.38344 14.7502 4.20827C14.7502 3.57598 14.4993 2.96954 14.0524 2.52217C13.6056 2.07479 12.9995 1.82306 12.3672 1.82227H11.6332C11.0015 1.82306 10.3958 2.07438 9.94906 2.52111C9.50233 2.96783 9.25101 3.5735 9.25022 4.20527C9.2466 4.38055 9.19187 4.55096 9.09274 4.69557C8.99361 4.84018 8.85441 4.95268 8.69222 5.01927C8.15555 5.25504 7.64537 5.547 7.17022 5.89027C7.03175 5.99667 6.86516 6.06019 6.691 6.07298C6.51684 6.08578 6.34275 6.04729 6.19022 5.96227L5.85922 5.77227C5.58818 5.61512 5.28881 5.51296 4.97824 5.47163C4.66768 5.43031 4.35201 5.45063 4.04931 5.53144C3.7466 5.61225 3.4628 5.75195 3.21415 5.94256C2.9655 6.13317 2.75688 6.37094 2.60022 6.64227L2.16322 7.40027C1.84781 7.94768 1.76248 8.59787 1.92597 9.20813C2.08945 9.81839 2.48839 10.3388 3.03522 10.6553L3.36322 10.8443C3.5139 10.9347 3.63482 11.0672 3.71106 11.2256C3.78729 11.3839 3.81551 11.5611 3.79222 11.7353C3.76309 12.0133 3.74907 12.2927 3.75022 12.5723C3.75048 12.8509 3.7655 13.1293 3.79522 13.4063C3.81922 13.5808 3.79146 13.7586 3.71538 13.9175C3.63929 14.0764 3.51824 14.2095 3.36722 14.3003L3.03922 14.4893C2.49239 14.8057 2.09345 15.3261 1.92997 15.9364C1.76648 16.5467 1.85181 17.1969 2.16722 17.7443L2.60422 18.5023C2.92026 19.0495 3.44073 19.4488 4.05114 19.6123C4.66156 19.7758 5.31193 19.6902 5.85922 19.3743L6.18922 19.1833C6.34158 19.0978 6.51566 19.059 6.68988 19.0717C6.86409 19.0843 7.03076 19.1478 7.16922 19.2543C7.64509 19.5975 8.15593 19.8895 8.69322 20.1253C8.85522 20.192 8.99421 20.3046 9.09316 20.4492C9.1921 20.5938 9.24669 20.7641 9.25022 20.9393C9.25101 21.571 9.50233 22.1767 9.94906 22.6234C10.3958 23.0702 11.0015 23.3215 11.6332 23.3223H12.3672C12.999 23.3215 13.6047 23.0702 14.0514 22.6234C14.4981 22.1767 14.7494 21.571 14.7502 20.9393C14.7538 20.764 14.8086 20.5936 14.9077 20.449C15.0068 20.3044 15.146 20.1919 15.3082 20.1253C15.8449 19.8895 16.3551 19.5975 16.8302 19.2543C16.9693 19.1487 17.1361 19.0858 17.3103 19.0734C17.4845 19.061 17.6585 19.0995 17.8112 19.1843L18.1412 19.3743C18.4124 19.5313 18.7119 19.6334 19.0225 19.6746C19.3332 19.7157 19.6489 19.6952 19.9516 19.6142C20.2543 19.5332 20.5381 19.3933 20.7866 19.2025C21.0352 19.0117 21.2437 18.7738 21.4002 18.5023L21.8372 17.7443C22.1523 17.1964 22.237 16.5458 22.0728 15.9355C21.9085 15.3252 21.5087 14.805 20.9612 14.4893ZM12.0002 17.3223C11.0608 17.3223 10.1424 17.0437 9.36126 16.5217C8.58013 15.9998 7.97131 15.258 7.61179 14.39C7.25228 13.5221 7.15821 12.567 7.34149 11.6456C7.52477 10.7242 7.97716 9.87781 8.64146 9.21351C9.30576 8.54921 10.1521 8.09682 11.0735 7.91354C11.995 7.73026 12.95 7.82432 13.818 8.18384C14.6859 8.54335 15.4278 9.15217 15.9497 9.93331C16.4716 10.7144 16.7502 11.6328 16.7502 12.5723C16.7486 13.8316 16.2477 15.0388 15.3572 15.9293C14.4668 16.8197 13.2595 17.3207 12.0002 17.3223Z" fill="white"/>
<path d="M12 15.8223C13.7949 15.8223 15.25 14.3672 15.25 12.5723C15.25 10.7773 13.7949 9.32227 12 9.32227C10.2051 9.32227 8.75 10.7773 8.75 12.5723C8.75 14.3672 10.2051 15.8223 12 15.8223Z" fill="white"/>
</svg>
