<svg width="400" height="285" viewBox="0 0 400 285" fill="none" xmlns="http://www.w3.org/2000/svg">
<mask id="mask0_5272_3033" style="mask-type:luminance" maskUnits="userSpaceOnUse" x="0" y="-68" width="401" height="400">
<path d="M400.5 -68H0.5V332H400.5V-68Z" fill="white"/>
</mask>
<g mask="url(#mask0_5272_3033)">
<path d="M122.314 239.483C122.314 237.823 123.661 236.477 125.321 236.477H177.437C179.097 236.477 180.444 237.823 180.444 239.483V280.575C180.444 282.235 179.097 283.582 177.437 283.582H125.321C123.661 283.582 122.314 282.235 122.314 280.575V239.483Z" fill="#E5E5E5"/>
<path d="M272.76 259.029C272.76 272.037 262.216 282.581 249.208 282.581C236.2 282.581 225.656 272.037 225.656 259.029C225.656 246.021 236.2 235.477 249.208 235.477C262.216 235.477 272.76 246.021 272.76 259.029Z" fill="#E5E5E5"/>
<path d="M140.354 239.483C140.354 237.823 141.701 236.477 143.361 236.477H195.477C197.137 236.477 198.484 237.823 198.484 239.483V280.575C198.484 282.235 197.137 283.582 195.477 283.582H143.361C141.701 283.582 140.354 282.235 140.354 280.575V239.483Z" fill="#F1F1F1"/>
<path d="M165.477 93.049C164.675 101.869 172.492 106.412 176.501 107.581C184.687 113.094 203.261 124.218 212.081 124.62C220.9 125.021 222.771 118.105 222.604 114.597C224.108 114.264 227.615 112.292 229.62 107.081C231.624 101.869 228.116 97.893 226.112 96.557C228.116 95.3877 231.724 91.5464 230.121 85.533C228.517 79.5197 222.103 79.353 219.096 80.021C219.932 77.849 220.099 72.4037 214.085 67.9944C208.072 63.584 200.555 69.1624 197.548 72.5037C196.547 68.9957 192.236 62.782 183.016 65.989C173.796 69.1957 173.829 78.0157 174.999 82.025C172.159 82.025 166.279 84.229 165.477 93.049Z" fill="#3E3D3D"/>
<path d="M87.5537 158.739C91.5626 159.942 97.2418 167.926 99.5803 171.769L93.0658 181.29C92.0637 181.457 89.5581 180.989 87.5537 177.782C85.0481 173.773 79.0346 166.758 68.5113 166.758C57.9878 166.758 42.9543 162.749 40.9499 160.745C38.9454 158.739 40.9499 154.73 46.9633 157.237C51.7739 159.241 61.6627 159.074 66.0057 158.739C64.0013 156.735 63.5001 154.23 66.0057 153.729C68.5113 153.227 82.5425 157.237 87.5537 158.739Z" fill="#EFCB96"/>
<path d="M312.805 158.739C308.796 159.942 303.117 167.926 300.779 171.769L307.293 181.29C308.295 181.457 310.8 180.989 312.805 177.782C315.311 173.773 321.324 166.758 331.848 166.758C342.371 166.758 357.404 162.749 359.409 160.745C361.413 158.739 359.409 154.73 353.396 157.237C348.585 159.241 338.696 159.074 334.353 158.739C336.357 156.735 336.859 154.23 334.353 153.729C331.848 153.227 317.816 157.237 312.805 158.739Z" fill="#EFCB96"/>
<path d="M182.515 138.152C181.312 139.354 177.671 140.322 176 140.657C174.999 145.334 173.195 154.889 173.996 155.69C174.999 156.693 189.029 163.707 191.035 165.211C192.637 166.414 207.737 164.71 215.088 163.708L221.101 139.153C219.096 139.654 214.687 139.854 213.083 136.647C211.48 133.441 212.415 123.285 213.083 118.608C214.92 117.773 218.696 114.9 219.096 110.089C219.497 105.278 215.255 104.743 213.083 105.077C211.079 103.874 209.909 102.238 209.575 101.57C209.075 101.737 207.471 101.77 205.065 100.567C202.66 99.3648 202.059 95.0555 202.059 93.0502C200.723 94.5542 197.148 97.4608 193.54 97.0595C189.932 96.6582 187.025 93.5515 186.023 92.0488C185.188 93.0502 182.201 94.0528 181.513 99.5648C180.511 107.583 177.169 106.414 176 107.583C176 122.415 181.012 129.465 183.517 131.136C183.684 132.973 183.717 136.949 182.515 138.152Z" fill="#EFCB96"/>
<path d="M149.297 200.076C151.171 214.858 148.517 262.168 146.957 283.976H249.004C245.635 265.198 247.6 227.21 249.004 210.564C255.089 219.885 269.695 237.43 279.432 233.036C289.168 228.641 309.079 195.914 317.816 180.1L302.368 165.117C294.879 175.272 279.432 195.181 277.559 193.584C275.219 191.586 261.175 156.628 254.153 148.637C248.536 142.245 228.72 138.649 219.513 137.65C218.265 142.977 212.399 153.63 198.917 153.63C185.436 153.63 178.32 142.977 176.448 137.65C170.987 138.649 157.911 142.045 149.297 147.638C138.531 154.63 121.211 193.084 118.402 190.586C116.156 188.589 104.671 173.441 99.21 166.116L83.2944 181.098C90.472 198.078 106.887 232.037 115.126 232.037C123.364 232.037 141.34 210.729 149.297 200.076Z" fill="url(#paint0_linear_5272_3033)"/>
<path fill-rule="evenodd" clip-rule="evenodd" d="M149.44 186.191L150.441 201.225L148.441 201.358L147.44 186.325L149.44 186.191ZM251.165 193.35L249.661 212.894L247.663 212.741L249.167 193.197L251.165 193.35Z" fill="#46A4BC"/>
<path d="M165.562 184.363H188.752V282.582H165.562V184.363Z" fill="#FAC22F"/>
<path d="M64.9411 85.07C58.0083 93.694 64.9412 97.6468 69.2742 98.5454C89.4948 99.1445 131.496 99.6242 137.735 96.7481C145.535 93.1557 144.668 85.07 135.136 82.3741C125.603 79.6781 125.603 68 111.737 68C97.8718 68 93.5388 82.3741 87.4726 83.2727C81.4064 84.1714 73.6072 74.2884 64.9411 85.07Z" fill="#F7F7F7"/>
<path d="M255.343 112.26C252.177 116.433 255.343 118.345 257.323 118.78C266.559 119.07 285.745 119.302 288.595 117.91C292.158 116.172 291.762 112.26 287.408 110.955C283.053 109.651 283.053 104 276.72 104C270.386 104 268.407 110.955 265.636 111.39C262.865 111.825 259.302 107.043 255.343 112.26Z" fill="#F7F7F7"/>
<path d="M179.345 41.8852C177.756 42.1924 176.179 41.1534 176.09 39.5373C176.032 38.5032 176.082 37.5892 176.239 36.7955C176.53 35.3256 177.332 33.6227 178.647 31.6863C179.976 29.7295 180.791 28.3639 181.095 27.5896C181.563 26.4075 181.679 25.2041 181.442 23.9795C181.128 22.358 180.495 21.2009 179.543 20.5083C178.603 19.7951 177.379 19.5845 175.868 19.8767C174.424 20.1559 173.339 20.804 172.612 21.8213C172.472 22.0167 172.352 22.2204 172.251 22.4325C171.51 23.9759 170.596 25.7273 168.915 26.0522C167.222 26.3797 165.519 25.2463 165.663 23.5273C165.811 21.7725 166.409 20.2028 167.46 18.818C169.115 16.6551 171.579 15.2572 174.852 14.6243C178.227 13.9717 181.024 14.3436 183.244 15.7395C185.481 17.1321 186.906 19.4068 187.516 22.5635C188.059 25.3751 187.319 28.3903 185.293 31.6091L182.802 35.3388C182.304 36.2135 182.026 37.2535 181.967 38.4588C181.89 40.0601 180.92 41.5808 179.345 41.8852ZM177.596 50.5712C177.399 49.5535 177.552 48.674 178.052 47.9329C178.551 47.1747 179.328 46.6932 180.386 46.4887C181.46 46.2809 182.371 46.4448 183.119 46.9801C183.864 47.4983 184.331 48.2491 184.522 49.2323C184.704 50.1809 184.556 51.0328 184.075 51.7879C183.594 52.5431 182.799 53.0276 181.691 53.2418C180.583 53.4561 179.666 53.3025 178.938 52.7812C178.227 52.2565 177.78 51.5199 177.596 50.5712Z" fill="#F15846"/>
<path d="M160.793 53.5583C159.755 54.2579 158.317 53.9963 157.765 52.8734C157.412 52.1548 157.171 51.4895 157.041 50.8772C156.804 49.7435 156.86 48.2888 157.209 46.5131C157.563 44.7187 157.729 43.5002 157.711 42.8575C157.685 41.8747 157.404 40.9835 156.865 40.1838C156.151 39.125 155.351 38.4932 154.463 38.2886C153.579 38.0654 152.644 38.2863 151.657 38.9515C150.715 39.5871 150.139 40.3767 149.929 41.3203C149.889 41.5016 149.865 41.6831 149.857 41.8648C149.797 43.187 149.677 44.7099 148.58 45.4496C147.473 46.1952 145.919 45.9042 145.501 44.6374C145.076 43.344 145.027 42.0458 145.355 40.7427C145.877 38.7031 147.207 36.9627 149.345 35.5215C151.548 34.036 153.652 33.4539 155.653 33.7751C157.667 34.089 159.368 35.2766 160.759 37.3379C161.996 39.1739 162.381 41.5435 161.915 44.4466L161.271 47.8546C161.181 48.6275 161.299 49.4518 161.621 50.3271C162.051 51.49 161.821 52.8654 160.793 53.5583ZM162.177 60.2683C161.729 59.6036 161.571 58.9319 161.703 58.253C161.828 57.5627 162.236 56.9848 162.927 56.5192C163.628 56.0462 164.325 55.887 165.02 56.0416C165.707 56.185 166.267 56.5776 166.699 57.2196C167.116 57.8392 167.268 58.4904 167.155 59.1732C167.041 59.856 166.623 60.4414 165.899 60.9291C165.176 61.4168 164.476 61.5854 163.8 61.4347C163.136 61.2766 162.595 60.8878 162.177 60.2683Z" fill="#F15846"/>
<path d="M202.5 43.7559C201.34 43.2854 200.755 41.9469 201.379 40.8615C201.777 40.167 202.195 39.5955 202.631 39.1471C203.439 38.3166 204.676 37.5509 206.345 36.8498C208.031 36.1411 209.135 35.5997 209.659 35.2254C210.46 34.6563 211.041 33.9249 211.404 33.0311C211.884 31.8479 211.961 30.831 211.636 29.9806C211.328 29.1226 210.623 28.4698 209.52 28.0225C208.467 27.595 207.489 27.5579 206.591 27.9113C206.417 27.979 206.253 28.0602 206.097 28.1549C204.968 28.8434 203.637 29.5937 202.411 29.0961C201.175 28.5946 200.548 27.1421 201.367 26.0887C202.201 25.0135 203.252 24.2482 204.516 23.793C206.5 23.0879 208.687 23.2201 211.075 24.1894C213.537 25.1886 215.195 26.6085 216.045 28.4493C216.909 30.2949 216.873 32.3695 215.939 34.6731C215.107 36.725 213.356 38.3675 210.687 39.6009L207.499 40.9685C206.808 41.3258 206.189 41.8827 205.643 42.6394C204.917 43.6446 203.648 44.2221 202.5 43.7559ZM197.705 48.6495C198.007 47.9069 198.476 47.4009 199.113 47.1315C199.755 46.8498 200.463 46.8654 201.233 47.1786C202.019 47.4967 202.54 47.9869 202.799 48.6491C203.063 49.2989 203.049 49.9825 202.759 50.6999C202.477 51.3923 202.023 51.8819 201.392 52.1687C200.763 52.4555 200.043 52.4349 199.235 52.1067C198.425 51.7787 197.896 51.2923 197.644 50.6475C197.404 50.0078 197.424 49.3418 197.705 48.6495Z" fill="#F15846"/>
<path fill-rule="evenodd" clip-rule="evenodd" d="M0.109375 283.585C0.109375 283.031 0.558089 282.582 1.1116 282.582H399.497C400.051 282.582 400.5 283.031 400.5 283.585C400.5 284.138 400.051 284.587 399.497 284.587H1.1116C0.558089 284.587 0.109375 284.138 0.109375 283.585Z" fill="#EAECF0"/>
</g>
<defs>
<linearGradient id="paint0_linear_5272_3033" x1="200.555" y1="137.65" x2="200.555" y2="283.976" gradientUnits="userSpaceOnUse">
<stop stop-color="#022343"/>
<stop offset="1" stop-color="#3F5694"/>
</linearGradient>
</defs>
</svg>
