<svg width="25" height="24" viewBox="0 0 25 24" fill="none" xmlns="http://www.w3.org/2000/svg">
<path d="M13.9375 16.8125C15.6634 16.8125 17.0625 15.4134 17.0625 13.6875C17.0625 11.9616 15.6634 10.5625 13.9375 10.5625C12.2116 10.5625 10.8125 11.9616 10.8125 13.6875C10.8125 15.4134 12.2116 16.8125 13.9375 16.8125Z" fill="#174EA0"/>
<path d="M19.9762 18.3998L17.3954 15.819C17.062 16.3575 16.6081 16.8114 16.0696 17.1448L18.6504 19.7256C19.0165 20.0917 19.6101 20.0917 19.9762 19.7256C20.3423 19.3595 20.3423 18.7659 19.9762 18.3998ZM7.3758 4.27481L4.52539 7.12522H7.3758V4.27481ZM7.0633 12.1252H10.1885C10.4437 11.5149 10.8437 10.9797 11.3454 10.5627H7.0633V12.1252Z" fill="#174EA0"/>
<path d="M9.92309 13.0625H6.59375C6.33488 13.0625 6.125 12.8526 6.125 12.5938V10.0938C6.125 9.83488 6.33488 9.625 6.59375 9.625H13.9375C14.8796 9.625 15.7477 9.94738 16.4375 10.4875V5.40625C16.4375 4.63084 15.8067 4 15.0312 4H8.3125V7.59375C8.3125 7.85262 8.10262 8.0625 7.84375 8.0625H4.25V18.5938C4.25 19.3692 4.88084 20 5.65625 20H15.0312C15.7294 20 16.3101 19.4885 16.4189 18.8206L15.1602 17.5618C14.7647 17.6868 14.3523 17.7503 13.9375 17.75C12.9527 17.75 12.0486 17.3976 11.3446 16.8125H6.59375C6.33488 16.8125 6.125 16.6026 6.125 16.3438C6.125 16.0849 6.33488 15.875 6.59375 15.875H10.5156C10.3281 15.5828 10.1791 15.2677 10.072 14.9375H6.59375C6.33488 14.9375 6.125 14.7276 6.125 14.4688C6.125 14.2099 6.33488 14 6.59375 14H9.88691C9.84412 13.5321 9.92309 13.0625 9.92309 13.0625ZM14.0938 8.6875H9.71875C9.45988 8.6875 9.25 8.47762 9.25 8.21875C9.25 7.95988 9.45988 7.75 9.71875 7.75H14.0938C14.3526 7.75 14.5625 7.95988 14.5625 8.21875C14.5625 8.47762 14.3526 8.6875 14.0938 8.6875ZM14.0938 6.8125H9.71875C9.45988 6.8125 9.25 6.60262 9.25 6.34375C9.25 6.08488 9.45988 5.875 9.71875 5.875H14.0938C14.3526 5.875 14.5625 6.08488 14.5625 6.34375C14.5625 6.60262 14.3526 6.8125 14.0938 6.8125Z" fill="#174EA0"/>
</svg>
