<svg width="20" height="20" viewBox="0 0 20 20" fill="none" xmlns="http://www.w3.org/2000/svg">
<path fill-rule="evenodd" clip-rule="evenodd" d="M11.75 1.99266C13.0179 0.724778 15.0735 0.724778 16.3414 1.99266C17.6093 3.26054 17.6093 5.31618 16.3414 6.58406L10.0131 12.9124C9.65642 13.2691 9.4386 13.4869 9.19583 13.6763C8.90981 13.8994 8.60033 14.0907 8.27287 14.2467C7.99494 14.3792 7.70269 14.4766 7.22413 14.6361L4.99692 15.3785L4.4622 15.5567C3.98358 15.7163 3.45589 15.5917 3.09915 15.2349C2.7424 14.8782 2.61783 14.3505 2.77737 13.8719L3.69801 11.11C3.8575 10.6314 3.9549 10.3391 4.08736 10.0612C4.24342 9.73376 4.43469 9.42428 4.65778 9.13825C4.84714 8.89548 5.06498 8.67766 5.42169 8.32099L11.75 1.99266ZM4.96809 14.0705L4.26362 13.366L4.87064 11.5449C5.04737 11.0147 5.12037 10.7992 5.21577 10.599C5.33276 10.3535 5.47616 10.1215 5.64342 9.90703C5.77979 9.73218 5.93997 9.57048 6.33516 9.17529L11.2443 4.26614C11.4469 4.77447 11.7898 5.38799 12.3679 5.96614C12.9461 6.54429 13.5596 6.88714 14.0679 7.08978L9.15879 11.9989C8.7636 12.3941 8.6019 12.5543 8.42706 12.6907C8.21262 12.8579 7.9806 13.0013 7.7351 13.1183C7.53493 13.2137 7.31935 13.2867 6.78915 13.4634L4.96809 14.0705ZM15.064 6.09375C14.9608 6.0711 14.8317 6.03701 14.6851 5.98612C14.2817 5.84618 13.7511 5.58157 13.2518 5.08226C12.7525 4.58295 12.4879 4.05238 12.348 3.64903C12.2971 3.50233 12.263 3.37331 12.2403 3.27012L12.6339 2.87654C13.4136 2.09682 14.6778 2.09682 15.4575 2.87654C16.2373 3.65627 16.2373 4.92045 15.4575 5.70018L15.064 6.09375ZM2.709 18.3334C2.709 17.9882 2.98882 17.7084 3.334 17.7084H16.6673V18.9584H3.334C2.98882 18.9584 2.709 18.6786 2.709 18.3334Z" fill="#1A3275"/>
</svg>
