<svg width="18" height="18" viewBox="0 0 18 18" fill="none" xmlns="http://www.w3.org/2000/svg">
<path d="M7.18731 16.5641H3.55815C2.3822 16.5598 1.42874 15.6099 1.4201 14.434V7.21511C1.42241 6.82145 1.59856 6.44893 1.90136 6.19737L2.54041 5.724C2.77371 5.47543 2.79743 5.09614 2.59692 4.82044C2.39641 4.54473 2.02826 4.45044 1.71991 4.5958L1.06508 5.08495C0.404538 5.59605 0.0125526 6.38002 0 7.21511V14.4419C0.00433883 16.4052 1.59484 17.9957 3.55815 18H7.18731C7.57946 18 7.89736 17.6821 7.89736 17.29C7.89736 16.8978 7.57946 16.5799 7.18731 16.5799V16.5641Z" fill="#174EA0"/>
<path d="M17.0492 7.19948C17.0409 6.37052 16.6616 5.58888 16.0157 5.06932L10.564 0.722219C9.36605 -0.24074 7.6595 -0.24074 6.46151 0.722219L4.73372 1.97665C4.4091 2.20976 4.33493 2.66188 4.56804 2.9865C4.80115 3.31111 5.25328 3.38529 5.57789 3.15218L7.32935 1.84252C8.0168 1.27656 9.00875 1.27656 9.69619 1.84252L15.1478 6.18962C15.4616 6.43835 15.647 6.81491 15.6527 7.21526V14.442C15.6527 15.6185 14.699 16.5722 13.5226 16.5722H11.9052C11.7397 16.5722 11.6054 16.4379 11.6054 16.2724V13.014C11.6055 11.9757 10.766 11.1328 9.72775 11.1284H7.36091C6.86082 11.1284 6.38122 11.3271 6.0276 11.6807C5.67399 12.0343 5.47533 12.5139 5.47533 13.014V14.2606C5.47533 14.6527 5.79323 14.9706 6.18538 14.9706C6.57753 14.9706 6.89543 14.6527 6.89543 14.2606V13.014C6.89332 12.8913 6.94059 12.7729 7.02664 12.6853C7.11268 12.5978 7.23028 12.5485 7.35302 12.5485H9.71986C9.97258 12.5485 10.1775 12.7534 10.1775 13.0061V16.2724C10.1818 17.2235 10.9541 17.9923 11.9052 17.9923H13.4831C15.4483 17.9923 17.0413 16.3992 17.0413 14.4341L17.0492 7.19948Z" fill="#174EA0"/>
</svg>
