<svg width="20" height="20" viewBox="0 0 20 20" fill="none" xmlns="http://www.w3.org/2000/svg">
<path d="M1.66669 13.3333C1.66669 10.9762 1.66669 9.79772 2.39892 9.06548C3.13115 8.33325 4.30966 8.33325 6.66669 8.33325H13.3334C15.6904 8.33325 16.8689 8.33325 17.6011 9.06548C18.3334 9.79772 18.3334 10.9762 18.3334 13.3333C18.3334 15.6903 18.3334 16.8688 17.6011 17.601C16.8689 18.3333 15.6904 18.3333 13.3334 18.3333H6.66669C4.30966 18.3333 3.13115 18.3333 2.39892 17.601C1.66669 16.8688 1.66669 15.6903 1.66669 13.3333Z" stroke="#A7A7A7" stroke-width="1.5"/>
<path d="M5 8.33341V6.66675C5 3.90532 7.23858 1.66675 10 1.66675C12.7614 1.66675 15 3.90532 15 6.66675V8.33341" stroke="#A7A7A7" stroke-width="1.5" stroke-linecap="round"/>
<path d="M7.49998 13.3333C7.49998 13.7936 7.12688 14.1667 6.66665 14.1667C6.20641 14.1667 5.83331 13.7936 5.83331 13.3333C5.83331 12.8731 6.20641 12.5 6.66665 12.5C7.12688 12.5 7.49998 12.8731 7.49998 13.3333Z" fill="#A7A7A7"/>
<path d="M10.8333 13.3333C10.8333 13.7936 10.4602 14.1667 9.99998 14.1667C9.53974 14.1667 9.16665 13.7936 9.16665 13.3333C9.16665 12.8731 9.53974 12.5 9.99998 12.5C10.4602 12.5 10.8333 12.8731 10.8333 13.3333Z" fill="#A7A7A7"/>
<path d="M14.1666 13.3333C14.1666 13.7936 13.7936 14.1667 13.3333 14.1667C12.8731 14.1667 12.5 13.7936 12.5 13.3333C12.5 12.8731 12.8731 12.5 13.3333 12.5C13.7936 12.5 14.1666 12.8731 14.1666 13.3333Z" fill="#A7A7A7"/>
</svg>
