<svg width="189" height="80" viewBox="0 0 189 80" fill="none" xmlns="http://www.w3.org/2000/svg">
<rect x="1.5" y="1.5" width="186" height="77" rx="8.5" stroke="#7DD31F" stroke-width="3"/>
<path d="M55.212 57L68.23 24.662H73.336L86.308 57H79.638L69.61 30.458H71.91L61.744 57H55.212ZM62.112 50.974V45.73H79.5V50.974H62.112ZM90.1274 57V24.662H96.3834V57H90.1274Z" fill="url(#paint0_linear_1026_3602)"/>
<path d="M122.159 22.3039C123.984 22.6868 127.064 24.1508 127.9 25.0067C128.384 25.5247 128.494 25.84 128.494 26.7409C128.494 27.7094 128.406 27.9571 127.746 28.6328C126.756 29.6463 125.964 29.6238 123.633 28.5202C121.367 27.4391 119.475 27.0562 117.297 27.2589C110.5 27.867 105.529 34.5112 106.782 41.2681C107.266 43.8356 108.278 45.8176 110.038 47.6645C112.436 50.1645 115.581 51.4033 118.947 51.2006C124.952 50.8177 129.528 46.2005 129.968 40.1419C130.034 39.196 130.056 38.4077 130.012 38.4077C129.968 38.4077 129.616 38.4978 129.264 38.6104C128.89 38.723 127.064 39.2861 125.194 39.8491C122.335 40.7275 121.675 41.0203 121.015 41.6735C119.695 42.9798 118.331 43.2501 116.703 42.4843C115.317 41.8311 114.46 40.0969 114.768 38.5203C114.966 37.4392 116.241 35.9977 117.297 35.6824C117.979 35.4572 118.419 35.4797 119.365 35.7049C120.377 35.9527 120.729 35.9527 121.719 35.6599C122.357 35.4572 125.304 34.5788 128.252 33.6779C131.332 32.7545 133.685 32.1464 133.795 32.259C134.169 32.6419 134.873 35.0518 135.115 36.786C136.655 47.8672 127.46 57.7096 116.725 56.4709C111.314 55.8403 107.156 53.2727 104.165 48.7231C102.911 46.8086 102.229 45.0969 101.745 42.687C101.261 40.187 101.415 36.4707 102.097 34.241C103.945 28.2499 108.784 23.5652 114.526 22.3039C116.307 21.8985 120.333 21.8985 122.159 22.3039Z" fill="url(#paint1_linear_1026_3602)"/>
<path d="M108.713 58.1158C109.461 58.5888 112.365 59.6023 113.949 59.9401C114.807 60.1203 116.655 60.2555 118.238 60.2555C122.176 60.2555 125.498 59.3095 128.665 57.3275C129.237 56.9446 129.721 56.7419 129.721 56.832C129.721 56.9221 127.213 59.5573 124.156 62.6654C119.91 66.9898 118.458 68.3636 118.04 68.3636C117.644 68.3636 116.149 66.9672 111.793 62.4852C106.052 56.5843 105.92 56.3816 108.713 58.1158Z" fill="#80CE2F"/>
<defs>
<linearGradient id="paint0_linear_1026_3602" x1="77" y1="11" x2="77" y2="68" gradientUnits="userSpaceOnUse">
<stop stop-color="#174EA0"/>
<stop offset="1" stop-color="#162F74"/>
</linearGradient>
<linearGradient id="paint1_linear_1026_3602" x1="118.374" y1="56.5765" x2="118.374" y2="21.9999" gradientUnits="userSpaceOnUse">
<stop stop-color="#174EA0"/>
<stop offset="1" stop-color="#162F74"/>
</linearGradient>
</defs>
</svg>
