<svg width="24" height="25" viewBox="0 0 24 25" fill="none" xmlns="http://www.w3.org/2000/svg">
<path d="M12 24.5C5.38312 24.5 0 19.1169 0 12.5C0 5.88312 5.38312 0.5 12 0.5C18.6169 0.5 24 5.88312 24 12.5C24 19.1169 18.6169 24.5 12 24.5ZM12 2.21422C6.3285 2.21422 1.71422 6.8285 1.71422 12.5C1.71422 18.1715 6.3285 22.7858 12 22.7858C17.6715 22.7858 22.2858 18.1715 22.2858 12.5C22.2858 6.8285 17.6715 2.21422 12 2.21422Z" fill="#777777"/>
<path d="M16.2855 17.6431C16.0662 17.6431 15.8468 17.5594 15.6795 17.3918L7.10813 8.8205C6.7732 8.48557 6.7732 7.94323 7.10813 7.60854C7.44281 7.27381 7.98534 7.27362 8.32008 7.60854L16.8914 16.1799C17.2263 16.5148 17.2263 17.0571 16.8914 17.3918C16.812 17.4716 16.7176 17.5349 16.6136 17.578C16.5096 17.6211 16.3981 17.6432 16.2855 17.6431Z" fill="#777777"/>
<path d="M7.71398 17.6431C7.49461 17.6431 7.27547 17.5595 7.10813 17.3919C6.7732 17.0572 6.7732 16.5147 7.10813 16.1799L15.6795 7.60861C16.0144 7.27369 16.5567 7.27369 16.8914 7.60861C17.2261 7.9433 17.2263 8.48583 16.8914 8.82057L8.32008 17.3919C8.24061 17.4717 8.14614 17.5349 8.04213 17.5781C7.93811 17.6212 7.82659 17.6433 7.71398 17.6431Z" fill="#777777"/>
</svg>
