<svg width="18" height="18" viewBox="0 0 18 18" fill="none" xmlns="http://www.w3.org/2000/svg">
<path d="M2.45617 11.4718C1.81872 10.6436 1.5 10.2295 1.5 9C1.5 7.77047 1.81872 7.3564 2.45617 6.52825C3.72897 4.87467 5.86359 3 9 3C12.1364 3 14.271 4.87467 15.5438 6.52825C16.1813 7.35639 16.5 7.77047 16.5 9C16.5 10.2295 16.1813 10.6436 15.5438 11.4718C14.271 13.1253 12.1364 15 9 15C5.86359 15 3.72897 13.1253 2.45617 11.4718Z" stroke="#A7A7A7" stroke-width="1.5"/>
<path d="M11.25 9C11.25 10.2426 10.2426 11.25 9 11.25C7.75736 11.25 6.75 10.2426 6.75 9C6.75 7.75736 7.75736 6.75 9 6.75C10.2426 6.75 11.25 7.75736 11.25 9Z" stroke="#A7A7A7" stroke-width="1.5"/>
</svg>
