<svg width="20" height="20" viewBox="0 0 20 20" fill="none" xmlns="http://www.w3.org/2000/svg">
<path d="M10.981 5.11384L4.42624 13.8225C4.39325 13.8664 4.37264 13.9184 4.36657 13.9731L3.99849 17.4891C3.99314 17.5413 4.00132 17.594 4.02224 17.642C4.04316 17.6901 4.07611 17.732 4.11791 17.7636C4.18206 17.8119 4.26268 17.8327 4.34213 17.8216C4.36663 17.8181 4.39062 17.8117 4.41354 17.8024L7.68823 16.4789C7.73913 16.4582 7.78345 16.424 7.81643 16.3801L14.372 7.67186L10.981 5.11384ZM15.6972 3.38921L14.7286 2.65856C14.0813 2.17022 13.0922 2.30979 12.6051 2.957L11.7113 4.14442L15.1022 6.70235L15.9959 5.51496C16.2396 5.19146 16.3426 4.79193 16.2862 4.39037C16.2298 3.98881 16.0205 3.63317 15.6972 3.38921Z" fill="#174EA0"/>
</svg>
