<svg width="24" height="25" viewBox="0 0 24 25" fill="none" xmlns="http://www.w3.org/2000/svg">
<path d="M20.25 14.1786C20.25 15.0464 19.5464 15.75 18.6786 15.75C17.8107 15.75 17.1071 15.0464 17.1071 14.1786C17.1071 13.3108 17.8107 12.6072 18.6786 12.6072C19.5464 12.6072 20.25 13.3108 20.25 14.1786ZM6.89286 14.1786C6.89286 15.0464 6.18925 15.75 5.32143 15.75C4.45361 15.75 3.75 15.0464 3.75 14.1786C3.75 13.3108 4.45361 12.6072 5.32143 12.6072C6.18925 12.6072 6.89286 13.3108 6.89286 14.1786ZM13.5714 12.6072C13.5714 13.475 12.8678 14.1786 12 14.1786C11.1322 14.1786 10.4286 13.475 10.4286 12.6072C10.4286 11.7394 11.1322 11.0358 12 11.0358C12.8678 11.0358 13.5714 11.7394 13.5714 12.6072ZM7.29667 23.2143C7.0356 22.8768 6.89361 22.4624 6.89286 22.0357V18.1072C6.89463 17.7097 6.96344 17.3153 7.09641 16.9407C7.02888 16.9361 6.9619 16.9286 6.89286 16.9286H3.75C3.19837 16.927 2.65931 17.0933 2.20445 17.4054C1.83377 17.6576 1.53028 17.9965 1.32038 18.3927C1.11047 18.7888 1.00049 19.2303 1 19.6786V21.25C1.00069 21.6254 1.10874 21.9927 1.31139 22.3087C1.51404 22.6246 1.80284 22.876 2.14371 23.0332C2.27998 23.0977 2.42362 23.1453 2.57143 23.175V18.8929H3.35714V23.2143H7.29667ZM7.69065 23.6072C7.68643 23.6041 7.68299 23.6001 7.67857 23.597V23.6072H7.69065ZM15.999 16.8158C15.7883 16.4226 15.4862 16.0857 15.1181 15.8337C15.0816 15.8066 15.0433 15.782 15.0034 15.7602C14.5722 15.4967 14.0767 15.3572 13.5714 15.3572H10.4286C8.90969 15.3572 7.67857 16.5883 7.67857 18.1072V22.0357C7.67857 22.6866 8.20628 23.2143 8.85714 23.2143H9.25V17.7143H10.0357V23.2143H13.9643V17.7143H14.75V23.2143H15.1429C15.7937 23.2143 16.3214 22.6866 16.3214 22.0357V18.1072C16.3216 17.6568 16.2108 17.2133 15.999 16.8158ZM21.7967 17.4063C21.3416 17.0937 20.8021 16.9271 20.25 16.9286H17.1071C17.0385 16.9286 16.9715 16.9361 16.904 16.9407C17.0367 17.3154 17.1054 17.7097 17.1071 18.1072V22.0357C17.1064 22.4624 16.9644 22.8768 16.7033 23.2143H20.6429V18.8929H21.4286V23.175C21.5741 23.1459 21.7155 23.0989 21.8496 23.0352C22.1921 22.8789 22.4825 22.6276 22.6864 22.3112C22.8903 21.9948 22.9992 21.6265 23 21.25V19.6786C22.9995 19.2305 22.8897 18.7893 22.68 18.3933C22.4702 17.9973 22.167 17.6585 21.7967 17.4063Z" fill="white"/>
<path d="M11.9993 7.10719C11.2088 7.10565 10.4306 7.30331 9.7367 7.68192C9.04275 8.06053 8.45539 8.60788 8.02885 9.27343C7.60231 9.93898 7.35034 10.7013 7.2962 11.4899C7.24207 12.2786 7.38752 13.0682 7.71912 13.7858H9.96115C9.38567 12.7952 9.60572 11.5345 10.4825 10.7973C11.3594 10.0603 12.6392 10.0603 13.5161 10.7973C14.3929 11.5345 14.6129 12.7952 14.0374 13.7858H16.2814C16.6131 13.068 16.7586 12.2782 16.7044 11.4894C16.6502 10.7006 16.398 9.93814 15.9712 9.27252C15.5445 8.6069 14.9568 8.05957 14.2626 7.68112C13.5684 7.30266 12.79 7.10527 11.9993 7.10719Z" fill="white"/>
<path d="M21.4277 10.25H19.3063L19.23 9.95495C19.0565 9.27993 18.7866 8.63343 18.4288 8.03535L18.2715 7.77258L19.7776 6.26367C19.814 6.2275 19.8428 6.1845 19.8625 6.13714C19.8822 6.08979 19.8923 6.03902 19.8923 5.98774C19.8923 5.93646 19.8822 5.88568 19.8625 5.83833C19.8428 5.79098 19.814 5.74798 19.7776 5.71181L18.1094 4.04295C18.0353 3.97222 17.9367 3.93275 17.8343 3.93275C17.7318 3.93275 17.6333 3.97222 17.5592 4.04295L16.0503 5.55181L15.7875 5.39467C15.1887 5.03662 14.5414 4.7666 13.8656 4.5929L13.5706 4.51615V2.39286C13.5706 2.28866 13.5292 2.18874 13.4555 2.11506C13.3819 2.04139 13.2819 2 13.1777 2H10.8206C10.7164 2 10.6165 2.04139 10.5428 2.11506C10.4691 2.18874 10.4277 2.28866 10.4277 2.39286V4.51428L10.1327 4.59059C9.45766 4.7642 8.81107 5.03392 8.21276 5.39148L7.94993 5.54877L6.44141 4.04295C6.36723 3.97169 6.26835 3.93189 6.16548 3.93189C6.06261 3.93189 5.96373 3.97169 5.88955 4.04295L4.22069 5.71122C4.18431 5.74744 4.15544 5.79048 4.13572 5.83788C4.116 5.88528 4.10583 5.93611 4.10578 5.98744C4.10578 6.09126 4.14718 6.1906 4.22069 6.26367L5.72956 7.77258L5.57241 8.03535C5.21449 8.63342 4.94458 9.27992 4.77098 9.95495L4.69389 10.25H2.57059C2.4664 10.25 2.36647 10.2914 2.2928 10.365C2.21912 10.4387 2.17773 10.5386 2.17773 10.6428V13C2.17773 13.1042 2.21912 13.2041 2.2928 13.2778C2.36647 13.3514 2.4664 13.3928 2.57059 13.3928H3.10213C3.21733 13.065 3.40377 12.7668 3.64803 12.5197C3.89229 12.2726 4.1883 12.0827 4.51474 11.9637C4.84116 11.8446 5.18993 11.7994 5.53592 11.8313C5.88192 11.8633 6.21653 11.9715 6.51566 12.1483C6.50933 12.0395 6.49916 11.9317 6.49916 11.8214C6.49916 8.78389 8.96164 6.32142 11.9992 6.32142C15.0367 6.32142 17.4992 8.78389 17.4992 11.8214C17.4992 11.9317 17.489 12.0395 17.4827 12.1483C17.7818 11.9715 18.1164 11.8633 18.4624 11.8313C18.8084 11.7994 19.1572 11.8446 19.4836 11.9637C19.81 12.0827 20.106 12.2726 20.3503 12.5197C20.5946 12.7668 20.781 13.065 20.8962 13.3928H21.4277C21.5319 13.3928 21.6319 13.3514 21.7055 13.2778C21.7792 13.2041 21.8206 13.1042 21.8206 13V10.6428C21.8206 10.5386 21.7792 10.4387 21.7055 10.365C21.6319 10.2914 21.5319 10.25 21.4277 10.25Z" fill="white"/>
</svg>
