<svg width="24" height="24" viewBox="0 0 24 24" fill="none" xmlns="http://www.w3.org/2000/svg">
<path d="M23.025 21C22.9875 19.8 22.9125 18.5625 22.5375 17.4C22.425 17.0625 22.3125 16.725 22.0875 16.4625C21.8625 16.2 21.5625 15.9 21.225 15.825C20.4375 15.6 19.65 15.4125 18.825 15.1875C17.625 14.8875 16.3875 14.5875 15.1875 14.2875C15.1125 14.2875 15.0375 14.2875 14.925 14.25C14.925 14.2875 14.8875 14.3625 14.8875 14.4C14.6625 15.1875 14.475 15.975 14.25 16.725C13.95 17.6625 13.65 18.5625 13.3125 19.4625C13.275 19.575 13.2375 19.65 13.1625 19.7625C13.0875 19.35 13.05 18.7875 12.975 18.2625C12.8625 17.25 12.7125 16.3125 12.7125 16.275C12.75 16.1625 12.825 16.05 12.8625 15.9375C12.8625 15.9375 12.8625 15.9 12.9 15.9C12.9375 15.825 12.9375 15.75 12.975 15.7125C12.975 15.675 13.0125 15.675 13.0125 15.6375C13.05 15.5625 13.0875 15.45 13.0875 15.3375C13.0875 15.2625 13.05 15.15 13.0125 15.1125V15.075V15.0375C13.0125 15 12.975 15 12.975 14.9625V14.925C12.975 14.8875 12.9375 14.8875 12.9 14.85C12.8625 14.8125 12.825 14.8125 12.7875 14.8125H11.175C11.1375 14.8125 11.0625 14.85 10.9875 14.925V15C10.9125 15.075 10.9125 15.15 10.9125 15.225C10.9125 15.2625 10.875 15.3 10.875 15.375C10.875 15.4875 10.9125 15.5625 10.95 15.675V15.7125L10.9875 15.75C11.025 15.825 11.0625 15.8625 11.0625 15.9375V15.975C11.1 16.0875 11.175 16.2 11.2125 16.3125C11.2125 16.35 11.175 16.5375 11.1375 16.875C11.025 17.625 10.875 18.975 10.7625 19.8C10.725 19.6875 10.65 19.6125 10.6125 19.5C10.3125 18.6 9.97499 17.6625 9.67499 16.7625C9.44999 15.975 9.22499 15.225 9.03749 14.4375C9.03749 14.4 8.99999 14.325 8.99999 14.2875C8.88749 14.2875 8.81249 14.2875 8.73749 14.325C7.64999 14.5875 6.56249 14.85 5.47499 15.15C4.53749 15.375 3.63749 15.6375 2.69999 15.8625C2.39999 15.9375 2.09999 16.2 1.87499 16.4625L1.83749 16.5C1.61249 16.7625 1.49999 17.1 1.38749 17.4375C1.12499 18.4125 1.04999 19.5 0.974989 20.5875V21C0.937489 21.7875 0.824989 21.6375 1.57499 21.9375L2.13749 22.1625C3.48749 22.6125 4.87499 22.9125 6.26249 23.1C7.61249 23.2875 8.99999 23.4 10.3875 23.4375C10.65 23.4375 12.7875 23.475 12.7875 23.475C13.05 23.475 13.3125 23.475 13.575 23.4375C15.75 23.3625 17.925 23.175 20.0625 22.65C20.6625 22.5 21.2625 22.35 21.825 22.1625L22.3875 21.9375C23.175 21.6 23.0625 21.75 23.025 21ZM16.425 6.45001C16.425 6.45001 16.4625 6.18751 16.4625 6.07501C16.5 5.62501 16.5 5.21251 16.5375 4.76251C16.575 4.46251 16.6125 4.12501 16.575 3.82501C16.5 3.18751 16.2 2.70001 15.75 2.25001C15.525 2.02501 15.225 1.83751 14.8875 1.76251C14.85 1.76251 14.775 1.72501 14.7375 1.68751C14.3625 1.31251 13.95 1.05001 13.4625 0.900006C12.9375 0.712506 12.4125 0.637506 11.8875 0.600006C11.5875 0.600006 11.2875 0.600006 11.025 0.637506C10.1625 0.750006 9.37499 1.01251 8.69999 1.50001C7.94999 2.06251 7.46249 2.77501 7.42499 3.71251C7.38749 4.31251 7.46249 4.91251 7.49999 5.51251C7.49999 5.85001 7.53749 6.18751 7.57499 6.52501C7.53749 6.52501 7.53749 6.56251 7.49999 6.56251C7.12499 6.56251 6.93749 6.86251 6.93749 7.16251C6.93749 7.35001 6.89999 7.53751 6.93749 7.72501C7.01249 8.28751 7.16249 8.77501 7.49999 9.22501C7.68749 9.45001 7.83749 9.52501 8.09999 9.41251C8.09999 9.41251 8.51249 10.4625 8.54999 10.575C8.92499 11.4375 9.63749 12.375 10.5375 12.675C11.5875 13.05 12.9 13.0125 13.8375 12.4125C14.7 11.85 15.1875 10.9875 15.5625 10.05C15.5625 10.05 15.75 9.71251 15.825 9.56251C15.8625 9.48751 15.8625 9.41251 15.9375 9.41251C16.0125 9.41251 16.0875 9.45001 16.1625 9.45001C16.3125 9.45001 16.425 9.33751 16.5 9.22501C16.8375 8.77501 17.025 8.28751 17.0625 7.72501C17.1 7.53751 17.0625 7.35001 17.0625 7.16251C17.025 6.86251 16.875 6.56251 16.5 6.56251C16.4625 6.56251 16.4625 6.56251 16.425 6.52501M15.6375 8.66251C15.4125 9.45001 15.0375 10.2375 14.625 10.95C13.875 12.225 12.375 12.7125 10.9875 12.2625C9.48749 11.775 8.84999 10.125 8.43749 8.73751C8.21249 7.98751 8.09999 7.23751 8.09999 6.45001C8.09999 6.30001 8.09999 6.15001 8.06249 6.07501V6.00001C9.11249 6.03751 10.1625 6.00001 11.175 5.81251C11.475 5.77501 11.775 5.70001 12.0375 5.62501C12.9 5.40001 13.6875 5.06251 14.4 4.46251C14.775 4.95001 15.2625 5.25001 15.825 5.47501C15.9 5.51251 15.9375 5.55001 16.0125 5.55001C15.975 6.52501 15.9375 7.53751 15.675 8.47501C15.6375 8.55001 15.6375 8.62501 15.6375 8.66251Z" fill="white"/>
</svg>
