<svg width="28" height="29" viewBox="0 0 28 29" fill="none" xmlns="http://www.w3.org/2000/svg">
<g clip-path="url(#clip0_4801_3024)">
<path d="M18.4578 27.3401C18.3119 27.3898 18.1651 27.4368 18.0175 27.4811C18.1657 27.4367 18.312 27.3889 18.4578 27.3401ZM19.1892 27.0717C19.0318 27.1345 18.8744 27.1963 18.7141 27.2532C18.8736 27.1956 19.0319 27.1351 19.1892 27.0717Z" fill="#F7F7F7"/>
<path d="M14 28.0691C21.732 28.0691 28 21.8011 28 14.0691C28 6.3371 21.732 0.0690918 14 0.0690918C6.26801 0.0690918 0 6.3371 0 14.0691C0 21.8011 6.26801 28.0691 14 28.0691Z" fill="#EFECE8"/>
<path d="M12.9857 28.0285C12.8148 28.0165 12.6444 28.0034 12.4759 27.9851C12.6449 28.0034 12.8153 28.0165 12.9857 28.0285ZM10.6965 27.6732C10.5517 27.638 10.4078 27.6003 10.2644 27.5607C10.4078 27.6008 10.5517 27.6385 10.6965 27.6732ZM12.1863 27.9484C12.0335 27.9291 11.8811 27.9074 11.7291 27.8832C11.8802 27.9079 12.0332 27.9281 12.1863 27.9484ZM16.2714 27.8827C16.1198 27.9074 15.9672 27.9281 15.8142 27.9479C15.9668 27.9281 16.1198 27.9078 16.2714 27.8827ZM20.0364 26.7034C19.8248 26.8044 19.6107 26.9002 19.3943 26.9906C19.6108 26.9004 19.8249 26.8046 20.0364 26.7034ZM19.3943 26.9906C19.3268 27.0191 19.2577 27.0442 19.1897 27.0712C19.2572 27.0442 19.3263 27.0191 19.3943 26.9906ZM20.0557 26.6947C20.0494 26.6976 20.0427 26.7005 20.0364 26.7034C20.0427 26.7005 20.0494 26.6981 20.0557 26.6947ZM11.7286 27.8827C11.6288 27.866 11.5292 27.8483 11.4298 27.8296C11.5297 27.848 11.6287 27.8668 11.7286 27.8827ZM13.2324 28.0474C13.1499 28.043 13.0678 28.0343 12.9857 28.0285C13.0683 28.0343 13.1499 28.043 13.2324 28.0474ZM8.81083 27.0717C8.74276 27.0447 8.67372 27.0191 8.60614 26.9911C8.67372 27.0191 8.74276 27.0442 8.81083 27.0717ZM9.54221 27.3401C9.45676 27.3112 9.37035 27.2836 9.28586 27.2532C9.37035 27.2836 9.45628 27.3112 9.54221 27.3401ZM15.8137 27.9484C15.7172 27.961 15.6211 27.975 15.5241 27.9851C15.6211 27.9745 15.7172 27.961 15.8137 27.9484ZM17.3035 27.6732C17.2055 27.6969 17.107 27.7196 17.0081 27.7413C17.107 27.7201 17.2055 27.6974 17.3035 27.6732ZM10.2649 27.5612C10.1708 27.5352 10.0761 27.5091 9.98248 27.4811C10.0761 27.5091 10.1703 27.5352 10.2649 27.5612Z" fill="#F7F7F7"/>
<path d="M17.2046 15.0317C18.7643 13.9933 19.7931 12.2211 19.7931 10.207C19.7931 7.00778 17.1992 4.41392 14 4.41392C10.8008 4.41392 8.2069 7.00778 8.2069 10.207C8.2069 12.2211 9.23565 13.9933 10.7954 15.0317C10.7954 15.0317 10.7959 15.0322 10.7964 15.0322C10.7959 15.0322 10.7959 15.0317 10.7959 15.0317C7.06228 16.157 4.1551 19.1873 3.21903 22.9996L3.21952 23.0001C3.37252 23.184 3.53011 23.3639 3.69214 23.5399C3.73124 23.5828 3.77228 23.6238 3.81234 23.6658C3.93653 23.7982 4.0632 23.9283 4.19228 24.0559C4.24586 24.1085 4.30041 24.1592 4.35497 24.2109C4.47448 24.325 4.59599 24.437 4.71945 24.5469C4.78076 24.601 4.84303 24.6545 4.90483 24.7076C5.026 24.8114 5.14862 24.9133 5.27365 25.0127C5.33931 25.0654 5.40545 25.117 5.47159 25.1687C5.59808 25.266 5.72635 25.3609 5.85634 25.4535C5.92345 25.5013 5.98959 25.5501 6.05766 25.5969C6.19476 25.6915 6.33428 25.7823 6.47476 25.8721C6.538 25.9121 6.59979 25.9536 6.66352 25.9932C6.8262 26.0929 6.99085 26.1893 7.15738 26.2824C7.20131 26.307 7.24428 26.3336 7.28869 26.3577C7.50438 26.4759 7.72314 26.5885 7.94476 26.6952C7.95007 26.6976 7.95586 26.7 7.96117 26.7024C8.1731 26.8038 8.38841 26.8998 8.60614 26.9906C8.67372 27.0191 8.74276 27.0442 8.81083 27.0712C8.96821 27.134 9.12559 27.1958 9.28586 27.2527C9.37083 27.2832 9.45676 27.3107 9.54221 27.3396C9.688 27.3889 9.83476 27.4367 9.98248 27.4806C10.0761 27.5086 10.1703 27.5347 10.2649 27.5607C10.4078 27.6003 10.5517 27.638 10.697 27.6732C10.9399 27.7321 11.1844 27.7841 11.4303 27.8292C11.5297 27.8475 11.6287 27.8663 11.7291 27.8823C11.8807 27.9069 12.0332 27.9276 12.1863 27.9474C12.2828 27.96 12.3789 27.974 12.4759 27.9841C12.6449 28.0025 12.8153 28.0155 12.9857 28.0276C13.0683 28.0334 13.1499 28.0421 13.2324 28.0464C13.4868 28.0609 13.7422 28.0691 14 28.0691C14.2578 28.0691 14.5132 28.0609 14.7676 28.0474C14.8501 28.043 14.9322 28.0343 15.0143 28.0285C15.1852 28.0165 15.3556 28.0034 15.5241 27.9851C15.6211 27.9745 15.7172 27.961 15.8137 27.9484C15.9668 27.9286 16.1193 27.9079 16.2709 27.8832C16.3708 27.8668 16.4703 27.8485 16.5697 27.8301C16.8156 27.7852 17.0601 27.7332 17.303 27.6742C17.4479 27.639 17.5917 27.6013 17.7351 27.5617C17.8292 27.5356 17.9239 27.5096 18.0175 27.4816C18.1657 27.4372 18.312 27.3894 18.4578 27.3406C18.5432 27.3116 18.6297 27.2841 18.7141 27.2537C18.8735 27.1959 19.0319 27.1354 19.1892 27.0722C19.2572 27.0452 19.3263 27.0196 19.3939 26.9916C19.6103 26.9013 19.8244 26.8056 20.0359 26.7043C20.0422 26.7014 20.049 26.6985 20.0552 26.6956C20.2773 26.589 20.496 26.476 20.7113 26.3582C20.7557 26.3341 20.7987 26.3075 20.8426 26.2829C21.0091 26.1898 21.1738 26.0934 21.3365 25.9937C21.4002 25.9546 21.4625 25.9131 21.5252 25.8725C21.6657 25.7827 21.8052 25.6915 21.9423 25.5974C22.0099 25.5505 22.0766 25.5023 22.1437 25.454C22.2734 25.3611 22.4017 25.2662 22.5284 25.1692C22.5949 25.1179 22.6609 25.0659 22.7263 25.0132C22.851 24.9137 22.974 24.8119 23.0952 24.7081C23.1574 24.655 23.2197 24.6014 23.2806 24.5474C23.404 24.4375 23.5255 24.3255 23.645 24.2114C23.6991 24.1597 23.7541 24.1085 23.8077 24.0564C23.9369 23.9289 24.0636 23.7988 24.1877 23.6663C24.2272 23.6239 24.2683 23.5828 24.3079 23.5403C24.4696 23.3641 24.6279 23.1845 24.7805 23.0006L24.781 23.0001C23.8454 19.1873 20.9382 16.157 17.2046 15.0317Z" fill="#C0C0C0"/>
</g>
<defs>
<clipPath id="clip0_4801_3024">
<rect width="28" height="28" fill="white" transform="translate(0 0.0690918)"/>
</clipPath>
</defs>
</svg>
