<svg width="24" height="24" viewBox="0 0 24 24" fill="none" xmlns="http://www.w3.org/2000/svg">
<g clip-path="url(#clip0_1026_3352)">
<path d="M22.0896 12.0192C22.0896 11.664 22.4064 11.1552 22.7136 10.6656C23.1936 9.9072 23.6832 9.1104 23.4336 8.3136C23.184 7.5456 22.3392 7.2 21.5328 6.864C20.976 6.6336 20.4096 6.4032 20.1792 6.0864C19.9488 5.7696 19.9104 5.1552 19.8624 4.56C19.7952 3.6864 19.7376 2.7744 19.0848 2.2944C18.4032 1.8048 17.5008 2.0256 16.6272 2.2368C16.0704 2.3712 15.4848 2.5248 15.1392 2.4096C14.7936 2.304 14.4 1.8432 14.0256 1.392C13.4496 0.7104 12.8544 0 12.0288 0C11.2128 0 10.6176 0.7008 10.0416 1.3728C9.6576 1.824 9.264 2.2848 8.8992 2.4C8.5728 2.5056 7.9968 2.3712 7.4496 2.2272C6.6048 2.016 5.6544 1.776 4.9632 2.2752C4.272 2.7744 4.2048 3.7536 4.1376 4.6176C4.0992 5.184 4.0512 5.7792 3.8496 6.0576C3.6288 6.3552 3.0624 6.5856 2.5152 6.8064C1.6896 7.1424 0.844799 7.488 0.585599 8.2656C0.326399 9.0528 0.815999 9.84 1.2864 10.5984C1.5936 11.0976 1.9104 11.6064 1.9104 11.9712C1.9104 12.3264 1.5936 12.8352 1.2864 13.3248C0.806399 14.0832 0.316799 14.88 0.566399 15.6768C0.815999 16.4448 1.6608 16.7904 2.4672 17.1264C3.024 17.3568 3.5904 17.5872 3.8208 17.904C4.0512 18.2208 4.0896 18.8352 4.1376 19.4304C4.2048 20.304 4.2624 21.216 4.9152 21.696C5.5968 22.1856 6.4992 21.9648 7.3728 21.7536C7.9296 21.6192 8.5152 21.4752 8.8608 21.5808C9.2064 21.696 9.6 22.1568 9.9744 22.608C10.5504 23.2896 11.1456 24 11.9712 24C12.7872 24 13.3824 23.2992 13.9584 22.6272C14.3424 22.176 14.736 21.7152 15.0912 21.6C15.4176 21.4944 15.9936 21.6384 16.5504 21.7728C17.3856 21.984 18.336 22.224 19.0368 21.7248C19.728 21.2256 19.7952 20.2464 19.8624 19.3824C19.9008 18.816 19.9488 18.2208 20.1504 17.9424C20.3712 17.6448 20.9376 17.4144 21.4848 17.1936C22.3104 16.8576 23.1648 16.512 23.4144 15.7344C23.6736 14.9472 23.184 14.16 22.7136 13.4016C22.4064 12.9024 22.0896 12.384 22.0896 12.0192ZM11.184 15.2736C10.992 15.4656 10.752 15.552 10.5024 15.552C10.2528 15.552 10.0128 15.456 9.8208 15.2736L6.9408 12.3936L8.2944 11.04L10.4928 13.2384L15.5712 8.16L16.9248 9.5136L11.184 15.2736Z" fill="#174EA0"/>
</g>
<defs>
<clipPath id="clip0_1026_3352">
<rect width="24" height="24" fill="white"/>
</clipPath>
</defs>
</svg>
