<svg width="20" height="20" viewBox="0 0 20 20" fill="none" xmlns="http://www.w3.org/2000/svg">
<rect width="20" height="20" fill="#1E1E1E"/>
<g id="Dashboard">
<path d="M-1319 -484C-1319 -485.105 -1318.1 -486 -1317 -486H769C770.104 -486 771 -485.105 771 -484V1036C771 1037.1 770.104 1038 769 1038H-1317C-1318.1 1038 -1319 1037.1 -1319 1036V-484Z" fill="#404040"/>
<path d="M-1317 -485H769V-487H-1317V-485ZM770 -484V1036H772V-484H770ZM769 1037H-1317V1039H769V1037ZM-1318 1036V-484H-1320V1036H-1318ZM-1317 1037C-1317.55 1037 -1318 1036.55 -1318 1036H-1320C-1320 1037.66 -1318.66 1039 -1317 1039V1037ZM770 1036C770 1036.55 769.552 1037 769 1037V1039C770.657 1039 772 1037.66 772 1036H770ZM769 -485C769.552 -485 770 -484.552 770 -484H772C772 -485.657 770.657 -487 769 -487V-485ZM-1317 -487C-1318.66 -487 -1320 -485.657 -1320 -484H-1318C-1318 -484.552 -1317.55 -485 -1317 -485V-487Z" fill="white" fill-opacity="0.1"/>
<g id="Frame 427319575">
<g id="Dashboard_2" opacity="0.7">
<g clip-path="url(#clip0_0_1)">
<rect x="-1064" y="-236" width="1440" height="1024" rx="24" fill="white"/>
<g id="Frame 427319481">
<g id="Frame 427319496">
<g id="Frame 427319504" filter="url(#filter0_d_0_1)">
<rect x="-763" y="-7" width="776" height="414" rx="12" fill="white" shape-rendering="crispEdges"/>
</g>
</g>
<g id="Frame 427319495">
<g id="Frame 427319489" filter="url(#filter1_d_0_1)">
<rect x="25" y="-139" width="318" height="297" rx="12" fill="white" shape-rendering="crispEdges"/>
</g>
</g>
</g>
</g>
</g>
<g id="Frame 35315">
<g id="Frame 35310" filter="url(#filter2_d_0_1)">
<rect x="-60" y="-148" width="400" height="366" rx="12" fill="white" shape-rendering="crispEdges"/>
<g id="Frame 35311">
<g id="Frame 35309">
<g id="Frame 19213">
<rect x="-23.5" y="-17.5" width="327" height="55" rx="11.5" fill="white"/>
<rect x="-23.5" y="-17.5" width="327" height="55" rx="11.5" stroke="#D5DEEB"/>
<g id="Frame 35305">
<g id="Frame 35304">
<g id="svgviewer-output-7 1">
<rect x="-8" y="-8" width="36" height="36" rx="8" fill="#F7F7F7"/>
<g id="Frame">
<g id="Group">
<path id="Vector" d="M15.6569 4.34313C14.1459 2.83219 12.1368 2 10 2C7.86316 2 5.85413 2.83216 4.34313 4.34313C2.83219 5.85413 2 7.86316 2 10C2 12.1368 2.83216 14.1459 4.34313 15.6569C5.85413 17.1678 7.86316 18 10 18C12.1368 18 14.1459 17.1678 15.6569 15.6569C17.1678 14.1459 18 12.1368 18 10C18 7.86316 17.1678 5.85413 15.6569 4.34313ZM5.47203 15.4155C5.73622 13.1426 7.69044 11.3877 10 11.3877C11.2175 11.3877 12.3624 11.8621 13.2236 12.7232C13.9512 13.4508 14.41 14.4009 14.5281 15.4154C13.3013 16.4429 11.7217 17.0625 10 17.0625C8.27831 17.0625 6.69884 16.443 5.47203 15.4155ZM10 10.4221C8.66028 10.4221 7.57019 9.33203 7.57019 7.99231C7.57019 6.65247 8.66031 5.5625 10 5.5625C11.3397 5.5625 12.4298 6.65247 12.4298 7.99231C12.4298 9.33203 11.3397 10.4221 10 10.4221V10.4221ZM15.335 14.6229C15.0941 13.6529 14.5933 12.7669 13.8865 12.0603C13.3103 11.4841 12.6287 11.0519 11.8853 10.781C12.7789 10.1749 13.3673 9.151 13.3673 7.99231C13.3673 6.13562 11.8567 4.625 10 4.625C8.14331 4.625 6.63269 6.13562 6.63269 7.99231C6.63269 9.15162 7.22156 10.1759 8.11597 10.7819C7.432 11.0311 6.79909 11.4165 6.25453 11.9238C5.46594 12.6582 4.91834 13.5946 4.66444 14.6222C3.58913 13.3826 2.9375 11.766 2.9375 10C2.9375 6.10572 6.10572 2.9375 10 2.9375C13.8943 2.9375 17.0625 6.10572 17.0625 10C17.0625 11.7663 16.4106 13.3833 15.335 14.6229Z" fill="#1F3778"/>
</g>
</g>
</g>
</g>
</g>
</g>
</g>
</g>
</g>
</g>
</g>
</g>
<defs>
<filter id="filter0_d_0_1" x="-773" y="-17" width="796" height="434" filterUnits="userSpaceOnUse" color-interpolation-filters="sRGB">
<feFlood flood-opacity="0" result="BackgroundImageFix"/>
<feColorMatrix in="SourceAlpha" type="matrix" values="0 0 0 0 0 0 0 0 0 0 0 0 0 0 0 0 0 0 127 0" result="hardAlpha"/>
<feOffset/>
<feGaussianBlur stdDeviation="5"/>
<feComposite in2="hardAlpha" operator="out"/>
<feColorMatrix type="matrix" values="0 0 0 0 0.168627 0 0 0 0 0.254902 0 0 0 0 0.490196 0 0 0 0.1 0"/>
<feBlend mode="normal" in2="BackgroundImageFix" result="effect1_dropShadow_0_1"/>
<feBlend mode="normal" in="SourceGraphic" in2="effect1_dropShadow_0_1" result="shape"/>
</filter>
<filter id="filter1_d_0_1" x="15" y="-149" width="338" height="317" filterUnits="userSpaceOnUse" color-interpolation-filters="sRGB">
<feFlood flood-opacity="0" result="BackgroundImageFix"/>
<feColorMatrix in="SourceAlpha" type="matrix" values="0 0 0 0 0 0 0 0 0 0 0 0 0 0 0 0 0 0 127 0" result="hardAlpha"/>
<feOffset/>
<feGaussianBlur stdDeviation="5"/>
<feComposite in2="hardAlpha" operator="out"/>
<feColorMatrix type="matrix" values="0 0 0 0 0.121569 0 0 0 0 0.215686 0 0 0 0 0.470588 0 0 0 0.1 0"/>
<feBlend mode="normal" in2="BackgroundImageFix" result="effect1_dropShadow_0_1"/>
<feBlend mode="normal" in="SourceGraphic" in2="effect1_dropShadow_0_1" result="shape"/>
</filter>
<filter id="filter2_d_0_1" x="-70" y="-158" width="420" height="386" filterUnits="userSpaceOnUse" color-interpolation-filters="sRGB">
<feFlood flood-opacity="0" result="BackgroundImageFix"/>
<feColorMatrix in="SourceAlpha" type="matrix" values="0 0 0 0 0 0 0 0 0 0 0 0 0 0 0 0 0 0 127 0" result="hardAlpha"/>
<feOffset/>
<feGaussianBlur stdDeviation="5"/>
<feComposite in2="hardAlpha" operator="out"/>
<feColorMatrix type="matrix" values="0 0 0 0 0 0 0 0 0 0 0 0 0 0 0 0 0 0 0.1 0"/>
<feBlend mode="normal" in2="BackgroundImageFix" result="effect1_dropShadow_0_1"/>
<feBlend mode="normal" in="SourceGraphic" in2="effect1_dropShadow_0_1" result="shape"/>
</filter>
<clipPath id="clip0_0_1">
<rect x="-1064" y="-236" width="1440" height="1024" rx="24" fill="white"/>
</clipPath>
</defs>
</svg>
